<mxfile host="65bd71144e">
    <diagram id="I5H_NUQst8HR3VRnjbis" name="Page-1">
        <mxGraphModel dx="1129" dy="367" grid="1" gridSize="10" guides="1" tooltips="1" connect="1" arrows="1" fold="1" page="1" pageScale="1" pageWidth="1169" pageHeight="827" background="#ffffff" math="0" shadow="0">
            <root>
                <mxCell id="0"/>
                <mxCell id="1" parent="0"/>
                <mxCell id="2" value="7" style="rounded=1;whiteSpace=wrap;html=1;fillColor=none;strokeColor=#000000;fontColor=#000000;" parent="1" vertex="1">
                    <mxGeometry x="180" y="70" width="120" height="20" as="geometry"/>
                </mxCell>
                <mxCell id="3" value="6" style="rounded=1;whiteSpace=wrap;html=1;fillColor=none;strokeColor=#000000;fontColor=#000000;" parent="1" vertex="1">
                    <mxGeometry x="180" y="90" width="120" height="20" as="geometry"/>
                </mxCell>
                <mxCell id="4" value="5" style="rounded=1;whiteSpace=wrap;html=1;fillColor=none;strokeColor=#000000;fontColor=#000000;" parent="1" vertex="1">
                    <mxGeometry x="180" y="110" width="120" height="20" as="geometry"/>
                </mxCell>
                <mxCell id="5" value="4" style="rounded=1;whiteSpace=wrap;html=1;fillColor=none;strokeColor=#000000;fontColor=#000000;" parent="1" vertex="1">
                    <mxGeometry x="180" y="130" width="120" height="20" as="geometry"/>
                </mxCell>
                <mxCell id="6" value="3" style="rounded=1;whiteSpace=wrap;html=1;fillColor=none;strokeColor=#000000;fontColor=#000000;" parent="1" vertex="1">
                    <mxGeometry x="180" y="150" width="120" height="20" as="geometry"/>
                </mxCell>
                <mxCell id="7" value="2" style="rounded=1;whiteSpace=wrap;html=1;fillColor=none;strokeColor=#000000;fontColor=#000000;" parent="1" vertex="1">
                    <mxGeometry x="180" y="170" width="120" height="20" as="geometry"/>
                </mxCell>
                <mxCell id="8" value="1" style="rounded=1;whiteSpace=wrap;html=1;fillColor=none;strokeColor=#000000;fontColor=#000000;" parent="1" vertex="1">
                    <mxGeometry x="180" y="190" width="120" height="20" as="geometry"/>
                </mxCell>
                <mxCell id="9" value="0" style="rounded=1;whiteSpace=wrap;html=1;fillColor=none;strokeColor=#000000;fontColor=#000000;" parent="1" vertex="1">
                    <mxGeometry x="180" y="210" width="120" height="20" as="geometry"/>
                </mxCell>
                <mxCell id="11" value="" style="endArrow=classic;html=1;fontColor=#000000;strokeColor=#000000;entryX=1;entryY=0.5;entryDx=0;entryDy=0;exitX=0.947;exitY=0.993;exitDx=0;exitDy=0;exitPerimeter=0;" parent="1" source="12" edge="1">
                    <mxGeometry width="50" height="50" relative="1" as="geometry">
                        <mxPoint x="335" y="180" as="sourcePoint"/>
                        <mxPoint x="295" y="179.66" as="targetPoint"/>
                    </mxGeometry>
                </mxCell>
                <mxCell id="12" value="Read point : 4'b0010" style="text;html=1;strokeColor=none;fillColor=none;align=center;verticalAlign=middle;whiteSpace=wrap;rounded=0;fontColor=#000000;fontSize=9;" parent="1" vertex="1">
                    <mxGeometry x="305" y="160" width="100" height="20" as="geometry"/>
                </mxCell>
                <mxCell id="13" value="" style="endArrow=classic;html=1;fontColor=#000000;strokeColor=#000000;entryX=1;entryY=0.5;entryDx=0;entryDy=0;exitX=0.947;exitY=0.993;exitDx=0;exitDy=0;exitPerimeter=0;" parent="1" edge="1">
                    <mxGeometry width="50" height="50" relative="1" as="geometry">
                        <mxPoint x="399.69999999999993" y="79.96000000000001" as="sourcePoint"/>
                        <mxPoint x="295" y="79.75999999999996" as="targetPoint"/>
                    </mxGeometry>
                </mxCell>
                <mxCell id="14" value="Write point : 4'b0111" style="text;html=1;strokeColor=none;fillColor=none;align=center;verticalAlign=middle;whiteSpace=wrap;rounded=0;fontColor=#000000;fontSize=9;" parent="1" vertex="1">
                    <mxGeometry x="305" y="60" width="100" height="20" as="geometry"/>
                </mxCell>
                <mxCell id="15" value="" style="curved=1;endArrow=classic;html=1;fontSize=9;fontColor=#000000;strokeColor=#000000;entryX=0.643;entryY=1.164;entryDx=0;entryDy=0;entryPerimeter=0;dashed=1;" parent="1" edge="1">
                    <mxGeometry width="50" height="50" relative="1" as="geometry">
                        <mxPoint x="397" y="230" as="sourcePoint"/>
                        <mxPoint x="386.30000000000007" y="83.28000000000003" as="targetPoint"/>
                        <Array as="points">
                            <mxPoint x="417" y="170"/>
                        </Array>
                    </mxGeometry>
                </mxCell>
                <mxCell id="31" value="Write" style="edgeLabel;html=1;align=center;verticalAlign=middle;resizable=0;points=[];fontSize=9;labelBackgroundColor=none;fontColor=#333333;" parent="15" vertex="1" connectable="0">
                    <mxGeometry x="0.2605" y="4" relative="1" as="geometry">
                        <mxPoint x="-9" y="1" as="offset"/>
                    </mxGeometry>
                </mxCell>
                <mxCell id="35" value="Write" style="edgeLabel;html=1;align=center;verticalAlign=middle;resizable=0;points=[];fontSize=9;labelBackgroundColor=none;fontColor=#808080;" parent="15" vertex="1" connectable="0">
                    <mxGeometry x="0.2605" y="4" relative="1" as="geometry">
                        <mxPoint x="-9" y="1" as="offset"/>
                    </mxGeometry>
                </mxCell>
                <mxCell id="16" value="" style="curved=1;endArrow=classic;html=1;fontSize=9;fontColor=#000000;strokeColor=#000000;dashed=1;" parent="1" edge="1">
                    <mxGeometry width="50" height="50" relative="1" as="geometry">
                        <mxPoint x="340" y="230" as="sourcePoint"/>
                        <mxPoint x="340" y="180" as="targetPoint"/>
                        <Array as="points">
                            <mxPoint x="350" y="220"/>
                            <mxPoint x="350" y="200"/>
                        </Array>
                    </mxGeometry>
                </mxCell>
                <mxCell id="17" value="7" style="rounded=1;whiteSpace=wrap;html=1;fillColor=none;strokeColor=#000000;fontColor=#000000;" parent="1" vertex="1">
                    <mxGeometry x="460" y="70" width="120" height="20" as="geometry"/>
                </mxCell>
                <mxCell id="18" value="6" style="rounded=1;whiteSpace=wrap;html=1;fillColor=none;strokeColor=#000000;fontColor=#000000;" parent="1" vertex="1">
                    <mxGeometry x="460" y="90" width="120" height="20" as="geometry"/>
                </mxCell>
                <mxCell id="19" value="5" style="rounded=1;whiteSpace=wrap;html=1;fillColor=none;strokeColor=#000000;fontColor=#000000;" parent="1" vertex="1">
                    <mxGeometry x="460" y="110" width="120" height="20" as="geometry"/>
                </mxCell>
                <mxCell id="20" value="4" style="rounded=1;whiteSpace=wrap;html=1;fillColor=none;strokeColor=#000000;fontColor=#000000;" parent="1" vertex="1">
                    <mxGeometry x="460" y="130" width="120" height="20" as="geometry"/>
                </mxCell>
                <mxCell id="21" value="3" style="rounded=1;whiteSpace=wrap;html=1;fillColor=none;strokeColor=#000000;fontColor=#000000;" parent="1" vertex="1">
                    <mxGeometry x="460" y="150" width="120" height="20" as="geometry"/>
                </mxCell>
                <mxCell id="22" value="2" style="rounded=1;whiteSpace=wrap;html=1;fillColor=none;strokeColor=#000000;fontColor=#000000;" parent="1" vertex="1">
                    <mxGeometry x="460" y="170" width="120" height="20" as="geometry"/>
                </mxCell>
                <mxCell id="23" value="1" style="rounded=1;whiteSpace=wrap;html=1;fillColor=none;strokeColor=#000000;fontColor=#000000;" parent="1" vertex="1">
                    <mxGeometry x="460" y="190" width="120" height="20" as="geometry"/>
                </mxCell>
                <mxCell id="24" value="0" style="rounded=1;whiteSpace=wrap;html=1;fillColor=none;strokeColor=#000000;fontColor=#000000;" parent="1" vertex="1">
                    <mxGeometry x="460" y="210" width="120" height="20" as="geometry"/>
                </mxCell>
                <mxCell id="25" value="" style="endArrow=classic;html=1;fontColor=#000000;strokeColor=#000000;entryX=1;entryY=0.5;entryDx=0;entryDy=0;exitX=0.947;exitY=0.993;exitDx=0;exitDy=0;exitPerimeter=0;" parent="1" source="26" edge="1">
                    <mxGeometry width="50" height="50" relative="1" as="geometry">
                        <mxPoint x="615" y="180" as="sourcePoint"/>
                        <mxPoint x="575" y="179.65999999999997" as="targetPoint"/>
                    </mxGeometry>
                </mxCell>
                <mxCell id="26" value="Read point : 4'b0010" style="text;html=1;strokeColor=none;fillColor=none;align=center;verticalAlign=middle;whiteSpace=wrap;rounded=0;fontColor=#000000;fontSize=9;" parent="1" vertex="1">
                    <mxGeometry x="585" y="160" width="100" height="20" as="geometry"/>
                </mxCell>
                <mxCell id="27" value="" style="endArrow=classic;html=1;fontColor=#000000;strokeColor=#000000;entryX=1;entryY=0.5;entryDx=0;entryDy=0;exitX=0.947;exitY=0.993;exitDx=0;exitDy=0;exitPerimeter=0;" parent="1" edge="1">
                    <mxGeometry width="50" height="50" relative="1" as="geometry">
                        <mxPoint x="680.6999999999998" y="219.96000000000004" as="sourcePoint"/>
                        <mxPoint x="576" y="219.75999999999993" as="targetPoint"/>
                    </mxGeometry>
                </mxCell>
                <mxCell id="28" value="Write point : 4'b1000" style="text;html=1;strokeColor=none;fillColor=none;align=center;verticalAlign=middle;whiteSpace=wrap;rounded=0;fontSize=9;fontColor=#F01650;" parent="1" vertex="1">
                    <mxGeometry x="585" y="200" width="100" height="20" as="geometry"/>
                </mxCell>
                <mxCell id="29" value="" style="curved=1;endArrow=classic;html=1;fontSize=9;dashed=1;entryX=0.706;entryY=-0.093;entryDx=0;entryDy=0;entryPerimeter=0;fontColor=#A6A6A6;strokeColor=#A8A8A8;" parent="1" edge="1">
                    <mxGeometry width="50" height="50" relative="1" as="geometry">
                        <mxPoint x="681" y="230" as="sourcePoint"/>
                        <mxPoint x="663.6000000000001" y="198.14" as="targetPoint"/>
                        <Array as="points">
                            <mxPoint x="678" y="110"/>
                            <mxPoint x="668" y="70"/>
                            <mxPoint x="658" y="80"/>
                        </Array>
                    </mxGeometry>
                </mxCell>
                <mxCell id="30" value="" style="curved=1;endArrow=classic;html=1;fontSize=9;dashed=1;fontColor=#A6A6A6;strokeColor=#A8A8A8;" parent="1" edge="1">
                    <mxGeometry width="50" height="50" relative="1" as="geometry">
                        <mxPoint x="620" y="230" as="sourcePoint"/>
                        <mxPoint x="620" y="180" as="targetPoint"/>
                        <Array as="points">
                            <mxPoint x="630" y="220"/>
                            <mxPoint x="630" y="200"/>
                        </Array>
                    </mxGeometry>
                </mxCell>
                <mxCell id="32" value="Read" style="edgeLabel;html=1;align=center;verticalAlign=middle;resizable=0;points=[];fontSize=9;labelBackgroundColor=none;fontColor=#333333;" parent="1" vertex="1" connectable="0">
                    <mxGeometry x="354.99645995896094" y="210.0021358959893" as="geometry">
                        <mxPoint y="-2" as="offset"/>
                    </mxGeometry>
                </mxCell>
                <mxCell id="33" value="Write" style="edgeLabel;html=1;align=center;verticalAlign=middle;resizable=0;points=[];fontSize=9;labelBackgroundColor=none;fontColor=#333333;" parent="1" vertex="1" connectable="0">
                    <mxGeometry x="670.726459958961" y="100.92213589598931" as="geometry"/>
                </mxCell>
                <mxCell id="34" value="Read" style="edgeLabel;html=1;align=center;verticalAlign=middle;resizable=0;points=[];fontSize=9;labelBackgroundColor=none;fontColor=#808080;" parent="1" vertex="1" connectable="0">
                    <mxGeometry x="611.9964599589609" y="194.0021358959893" as="geometry">
                        <mxPoint y="-2" as="offset"/>
                    </mxGeometry>
                </mxCell>
                <mxCell id="36" value="Read" style="edgeLabel;html=1;align=center;verticalAlign=middle;resizable=0;points=[];fontSize=9;labelBackgroundColor=none;fontColor=#808080;" parent="1" vertex="1" connectable="0">
                    <mxGeometry x="354.99645995896094" y="210.0021358959893" as="geometry">
                        <mxPoint y="-2" as="offset"/>
                    </mxGeometry>
                </mxCell>
                <mxCell id="37" value="Write" style="edgeLabel;html=1;align=center;verticalAlign=middle;resizable=0;points=[];fontSize=9;labelBackgroundColor=none;fontColor=#808080;" parent="1" vertex="1" connectable="0">
                    <mxGeometry x="670.726459958961" y="100.92213589598931" as="geometry"/>
                </mxCell>
                <mxCell id="38" value="" style="curved=1;endArrow=classic;html=1;fontSize=9;fontColor=#000000;strokeColor=#000000;entryX=0.643;entryY=1.164;entryDx=0;entryDy=0;entryPerimeter=0;dashed=1;" parent="1" edge="1">
                    <mxGeometry width="50" height="50" relative="1" as="geometry">
                        <mxPoint x="397" y="230" as="sourcePoint"/>
                        <mxPoint x="386.3000000000002" y="83.28000000000003" as="targetPoint"/>
                        <Array as="points">
                            <mxPoint x="417" y="170"/>
                        </Array>
                    </mxGeometry>
                </mxCell>
                <mxCell id="39" value="Write" style="edgeLabel;html=1;align=center;verticalAlign=middle;resizable=0;points=[];fontSize=9;labelBackgroundColor=none;fontColor=#333333;" parent="38" vertex="1" connectable="0">
                    <mxGeometry x="0.2605" y="4" relative="1" as="geometry">
                        <mxPoint x="-9" y="1" as="offset"/>
                    </mxGeometry>
                </mxCell>
                <mxCell id="40" value="Write" style="edgeLabel;html=1;align=center;verticalAlign=middle;resizable=0;points=[];fontSize=9;labelBackgroundColor=none;fontColor=#808080;" parent="38" vertex="1" connectable="0">
                    <mxGeometry x="0.2605" y="4" relative="1" as="geometry">
                        <mxPoint x="-9" y="1" as="offset"/>
                    </mxGeometry>
                </mxCell>
                <mxCell id="41" value="" style="curved=1;endArrow=classic;html=1;fontSize=9;fontColor=#000000;strokeColor=#000000;dashed=1;" parent="1" edge="1">
                    <mxGeometry width="50" height="50" relative="1" as="geometry">
                        <mxPoint x="340" y="230" as="sourcePoint"/>
                        <mxPoint x="340" y="180" as="targetPoint"/>
                        <Array as="points">
                            <mxPoint x="350" y="220"/>
                            <mxPoint x="350" y="200"/>
                        </Array>
                    </mxGeometry>
                </mxCell>
                <mxCell id="42" value="" style="curved=1;endArrow=classic;html=1;fontSize=9;entryX=0.643;entryY=1.164;entryDx=0;entryDy=0;entryPerimeter=0;dashed=1;fontColor=#A6A6A6;strokeColor=#A8A8A8;" parent="1" edge="1">
                    <mxGeometry width="50" height="50" relative="1" as="geometry">
                        <mxPoint x="397" y="230" as="sourcePoint"/>
                        <mxPoint x="386.3000000000002" y="83.28000000000003" as="targetPoint"/>
                        <Array as="points">
                            <mxPoint x="417" y="170"/>
                        </Array>
                    </mxGeometry>
                </mxCell>
                <mxCell id="43" value="Write" style="edgeLabel;html=1;align=center;verticalAlign=middle;resizable=0;points=[];fontSize=9;labelBackgroundColor=none;fontColor=#333333;" parent="42" vertex="1" connectable="0">
                    <mxGeometry x="0.2605" y="4" relative="1" as="geometry">
                        <mxPoint x="-9" y="1" as="offset"/>
                    </mxGeometry>
                </mxCell>
                <mxCell id="44" value="Write" style="edgeLabel;html=1;align=center;verticalAlign=middle;resizable=0;points=[];fontSize=9;labelBackgroundColor=none;fontColor=#808080;" parent="42" vertex="1" connectable="0">
                    <mxGeometry x="0.2605" y="4" relative="1" as="geometry">
                        <mxPoint x="-9" y="1" as="offset"/>
                    </mxGeometry>
                </mxCell>
                <mxCell id="45" value="" style="curved=1;endArrow=classic;html=1;fontSize=9;dashed=1;fontColor=#A6A6A6;strokeColor=#A8A8A8;" parent="1" edge="1">
                    <mxGeometry width="50" height="50" relative="1" as="geometry">
                        <mxPoint x="340" y="230" as="sourcePoint"/>
                        <mxPoint x="340" y="180" as="targetPoint"/>
                        <Array as="points">
                            <mxPoint x="350" y="220"/>
                            <mxPoint x="350" y="200"/>
                        </Array>
                    </mxGeometry>
                </mxCell>
                <mxCell id="46" value="FIFO" style="text;html=1;strokeColor=none;fillColor=none;align=center;verticalAlign=middle;whiteSpace=wrap;rounded=0;fontColor=#000000;fontSize=9;" parent="1" vertex="1">
                    <mxGeometry x="190" y="230" width="100" height="20" as="geometry"/>
                </mxCell>
                <mxCell id="47" value="FIFO" style="text;html=1;strokeColor=none;fillColor=none;align=center;verticalAlign=middle;whiteSpace=wrap;rounded=0;fontColor=#000000;fontSize=9;" parent="1" vertex="1">
                    <mxGeometry x="470" y="230" width="100" height="20" as="geometry"/>
                </mxCell>
                <mxCell id="48" value="" style="shape=flexArrow;endArrow=classic;html=1;fontSize=9;fontColor=#A6A6A6;strokeColor=#000000;" parent="1" edge="1">
                    <mxGeometry width="50" height="50" relative="1" as="geometry">
                        <mxPoint x="420" y="149.43" as="sourcePoint"/>
                        <mxPoint x="450" y="149.43" as="targetPoint"/>
                    </mxGeometry>
                </mxCell>
                <mxCell id="49" value="7" style="rounded=1;whiteSpace=wrap;html=1;fillColor=none;strokeColor=#000000;fontColor=#000000;" vertex="1" parent="1">
                    <mxGeometry x="230" y="344" width="120" height="20" as="geometry"/>
                </mxCell>
                <mxCell id="50" value="6" style="rounded=1;whiteSpace=wrap;html=1;fillColor=none;strokeColor=#000000;fontColor=#000000;" vertex="1" parent="1">
                    <mxGeometry x="230" y="364" width="120" height="20" as="geometry"/>
                </mxCell>
                <mxCell id="51" value="5" style="rounded=1;whiteSpace=wrap;html=1;fillColor=none;strokeColor=#000000;fontColor=#000000;" vertex="1" parent="1">
                    <mxGeometry x="230" y="384" width="120" height="20" as="geometry"/>
                </mxCell>
                <mxCell id="52" value="4" style="rounded=1;whiteSpace=wrap;html=1;fillColor=none;strokeColor=#000000;fontColor=#000000;" vertex="1" parent="1">
                    <mxGeometry x="230" y="404" width="120" height="20" as="geometry"/>
                </mxCell>
                <mxCell id="53" value="3" style="rounded=1;whiteSpace=wrap;html=1;fillColor=none;strokeColor=#000000;fontColor=#000000;" vertex="1" parent="1">
                    <mxGeometry x="230" y="424" width="120" height="20" as="geometry"/>
                </mxCell>
                <mxCell id="54" value="2" style="rounded=1;whiteSpace=wrap;html=1;fillColor=none;strokeColor=#000000;fontColor=#000000;" vertex="1" parent="1">
                    <mxGeometry x="230" y="444" width="120" height="20" as="geometry"/>
                </mxCell>
                <mxCell id="55" value="1" style="rounded=1;whiteSpace=wrap;html=1;fillColor=none;strokeColor=#000000;fontColor=#000000;" vertex="1" parent="1">
                    <mxGeometry x="230" y="464" width="120" height="20" as="geometry"/>
                </mxCell>
                <mxCell id="56" value="0" style="rounded=1;whiteSpace=wrap;html=1;fillColor=none;strokeColor=#000000;fontColor=#000000;" vertex="1" parent="1">
                    <mxGeometry x="230" y="484" width="120" height="20" as="geometry"/>
                </mxCell>
                <mxCell id="57" value="FIFO" style="text;html=1;strokeColor=none;fillColor=none;align=center;verticalAlign=middle;whiteSpace=wrap;rounded=0;fontColor=#000000;fontSize=9;" vertex="1" parent="1">
                    <mxGeometry x="240" y="504" width="100" height="20" as="geometry"/>
                </mxCell>
                <mxCell id="58" value="" style="shape=flexArrow;endArrow=classic;html=1;fontSize=9;fontColor=#A6A6A6;strokeColor=#000000;" edge="1" parent="1">
                    <mxGeometry width="50" height="50" relative="1" as="geometry">
                        <mxPoint x="370" y="423.31" as="sourcePoint"/>
                        <mxPoint x="400" y="423.31" as="targetPoint"/>
                    </mxGeometry>
                </mxCell>
                <mxCell id="59" value="3（7）" style="rounded=1;whiteSpace=wrap;html=1;fillColor=none;strokeColor=#000000;fontColor=#000000;" vertex="1" parent="1">
                    <mxGeometry x="420" y="320" width="120" height="20" as="geometry"/>
                </mxCell>
                <mxCell id="60" value="2（5）" style="rounded=1;whiteSpace=wrap;html=1;fillColor=none;strokeColor=#000000;fontColor=#000000;" vertex="1" parent="1">
                    <mxGeometry x="420" y="340" width="120" height="20" as="geometry"/>
                </mxCell>
                <mxCell id="61" value="1（3）" style="rounded=1;whiteSpace=wrap;html=1;fillColor=none;strokeColor=#000000;fontColor=#000000;" vertex="1" parent="1">
                    <mxGeometry x="420" y="360" width="120" height="20" as="geometry"/>
                </mxCell>
                <mxCell id="62" value="0（1）" style="rounded=1;whiteSpace=wrap;html=1;fillColor=none;strokeColor=#000000;fontColor=#000000;" vertex="1" parent="1">
                    <mxGeometry x="420" y="380" width="120" height="20" as="geometry"/>
                </mxCell>
                <mxCell id="63" value="Odd SRAM" style="text;html=1;strokeColor=none;fillColor=none;align=center;verticalAlign=middle;whiteSpace=wrap;rounded=0;fontColor=#000000;fontSize=9;" vertex="1" parent="1">
                    <mxGeometry x="430" y="406" width="100" height="20" as="geometry"/>
                </mxCell>
                <mxCell id="64" value="3（6）" style="rounded=1;whiteSpace=wrap;html=1;fillColor=none;strokeColor=#000000;fontColor=#000000;" vertex="1" parent="1">
                    <mxGeometry x="420" y="446" width="120" height="20" as="geometry"/>
                </mxCell>
                <mxCell id="65" value="2（4）" style="rounded=1;whiteSpace=wrap;html=1;fillColor=none;strokeColor=#000000;fontColor=#000000;" vertex="1" parent="1">
                    <mxGeometry x="420" y="466" width="120" height="20" as="geometry"/>
                </mxCell>
                <mxCell id="66" value="1（2）" style="rounded=1;whiteSpace=wrap;html=1;fillColor=none;strokeColor=#000000;fontColor=#000000;" vertex="1" parent="1">
                    <mxGeometry x="420" y="486" width="120" height="20" as="geometry"/>
                </mxCell>
                <mxCell id="67" value="0（0）" style="rounded=1;whiteSpace=wrap;html=1;fillColor=none;strokeColor=#000000;fontColor=#000000;" vertex="1" parent="1">
                    <mxGeometry x="420" y="506" width="120" height="20" as="geometry"/>
                </mxCell>
                <mxCell id="68" value="Even SRAM" style="text;html=1;strokeColor=none;fillColor=none;align=center;verticalAlign=middle;whiteSpace=wrap;rounded=0;fontColor=#000000;fontSize=9;" vertex="1" parent="1">
                    <mxGeometry x="430" y="532" width="100" height="20" as="geometry"/>
                </mxCell>
                <mxCell id="69" value="" style="endArrow=classic;html=1;fontColor=#000000;strokeColor=#000000;entryX=1;entryY=0.5;entryDx=0;entryDy=0;exitX=0.947;exitY=0.993;exitDx=0;exitDy=0;exitPerimeter=0;" edge="1" parent="1">
                    <mxGeometry width="50" height="50" relative="1" as="geometry">
                        <mxPoint x="641.6999999999996" y="515.96" as="sourcePoint"/>
                        <mxPoint x="537" y="515.76" as="targetPoint"/>
                    </mxGeometry>
                </mxCell>
                <mxCell id="70" value="Read point : 0" style="text;html=1;strokeColor=none;fillColor=none;align=center;verticalAlign=middle;whiteSpace=wrap;rounded=0;fontColor=#000000;fontSize=9;" vertex="1" parent="1">
                    <mxGeometry x="547" y="496" width="100" height="20" as="geometry"/>
                </mxCell>
                <mxCell id="71" value="" style="endArrow=classic;html=1;fontColor=#000000;strokeColor=#000000;entryX=1;entryY=0.5;entryDx=0;entryDy=0;exitX=0.947;exitY=0.993;exitDx=0;exitDy=0;exitPerimeter=0;" edge="1" parent="1">
                    <mxGeometry width="50" height="50" relative="1" as="geometry">
                        <mxPoint x="641.6999999999996" y="495.63000000000005" as="sourcePoint"/>
                        <mxPoint x="537" y="495.43" as="targetPoint"/>
                    </mxGeometry>
                </mxCell>
                <mxCell id="72" value="Write point : 2" style="text;html=1;strokeColor=none;fillColor=none;align=center;verticalAlign=middle;whiteSpace=wrap;rounded=0;fontColor=#000000;fontSize=9;" vertex="1" parent="1">
                    <mxGeometry x="547" y="475.67" width="100" height="20" as="geometry"/>
                </mxCell>
            </root>
        </mxGraphModel>
    </diagram>
</mxfile>